# xmcd CD database file
#
# Track frame offsets:
#	183
#	27705
#	39525
#	63978
#	82275
#	96165
#	111055
#	125593
#	135993
#	151448
#	171878
#	194643
#	212143
#	224623
#	246663
#	271385
#
# Disc length: 3832 seconds
#
# Revision: 2
# Processed by: cddbd v1.4b41PL2 Copyright (c) Steve Scherf et al.
# Submitted via: CDex 1.40Beta4
#
DISCID=fe0ef610
DTITLE=Bob Dylan - Blowing In The Wind
DYEAR=1900
DGENRE=Blues
TTITLE0=Like A Rolling Stone
TTITLE1=One Too Many Mornings
TTITLE2=Mr. Tambourine Man
TTITLE3=It Takes A Lot To Laugh
TTITLE4=I Want You
TTITLE5=When The Ship Comes In
TTITLE6=The Times They Are A-Changin'
TTITLE7=Subterranean Homesick Blues
TTITLE8=Highway 61 Revisited
TTITLE9=Rainy Day Woman 12 and 35
TTITLE10=Ballad Of Hollie Brown
TTITLE11=Positively 4th Street
TTITLE12=Blowin' In The Wind
TTITLE13=Just Like A Woman
TTITLE14=Queen Jane Approximately
TTITLE15=It Ain't Me Babe
EXTD=ID3G:   0
EXTT0=
EXTT1=
EXTT2=
EXTT3=
EXTT4=
EXTT5=
EXTT6=
EXTT7=
EXTT8=
EXTT9=
EXTT10=
EXTT11=
EXTT12=
EXTT13=
EXTT14=
EXTT15=
PLAYORDER=
